<?xml version="1.0" standalone="no"?>
<!DOCTYPE svg PUBLIC "-//W3C//DTD SVG 20010904//EN"
 "http://www.w3.org/TR/2001/REC-SVG-20010904/DTD/svg10.dtd">
<svg version="1.0" xmlns="http://www.w3.org/2000/svg"
 width="700.000000pt" height="700.000000pt" viewBox="0 0 700.000000 700.000000"
 preserveAspectRatio="xMidYMid meet">
<metadata>
Created by potrace 1.11, written by Peter Selinger 2001-2013
</metadata>
<g transform="translate(0.000000,700.000000) scale(0.100000,-0.100000)"
fill="#000000" stroke="none">
<path d="M3199 6368 c0 -7 0 -409 1 -893 1 -484 2 -1774 3 -2867 1 -1094 5
-1988 8 -1988 4 0 74 44 155 98 82 54 237 156 344 227 363 239 495 327 500
332 2 2 5 59 6 126 7 512 15 1178 20 1522 6 435 12 864 13 1005 l1 85 49 -75
c27 -41 104 -158 170 -260 66 -102 125 -190 131 -197 5 -7 10 -14 10 -17 0 -3
55 -90 123 -193 68 -103 143 -218 166 -255 24 -38 47 -68 51 -68 5 0 66 89
136 198 71 108 189 289 262 402 74 113 147 225 163 250 43 66 53 80 59 80 3 0
5 -30 6 -67 1 -68 13 -575 19 -793 2 -63 6 -240 10 -392 6 -249 11 -399 14
-436 1 -9 9 -7 29 7 15 10 108 71 208 135 l181 116 -1 1102 -1 1103 -85 51
c-149 89 -309 181 -326 186 -6 2 -142 -172 -303 -387 -160 -214 -295 -391
-299 -393 -4 -1 -24 30 -44 70 -21 40 -59 114 -86 163 -26 50 -76 144 -111
210 -35 66 -76 143 -91 170 -15 28 -51 95 -80 150 -29 55 -56 105 -60 110 -4
6 -40 73 -80 150 -40 77 -80 154 -90 170 -9 17 -41 75 -70 130 -29 55 -74 141
-101 190 -26 50 -63 119 -82 155 -30 56 -44 70 -101 105 -36 22 -234 142 -440
268 -206 125 -377 227 -380 227 -3 0 -6 -6 -7 -12z"/>
<path d="M2126 4993 c-28 -7 -61 -14 -75 -17 -15 -2 -89 -18 -166 -35 -77 -17
-149 -33 -160 -35 -11 -3 -51 -12 -90 -20 -38 -9 -79 -18 -90 -21 -11 -2 -52
-11 -90 -20 l-71 -15 0 -438 0 -438 96 3 c52 1 230 5 395 9 165 3 301 7 303 9
4 4 5 1026 0 1029 -2 1 -25 -4 -52 -11z"/>
<path d="M1389 3236 c-1 0 -3 -402 -3 -892 l-2 -892 26 10 c14 5 158 59 320
119 162 60 304 114 315 119 11 4 43 16 70 26 28 9 54 20 58 24 6 5 11 1020 7
1391 0 29 -4 46 -12 46 -21 0 -229 14 -283 18 -27 3 -88 7 -135 10 -47 2 -121
7 -165 10 -149 10 -195 13 -196 11z"/>
</g>
</svg>
