<?xml version="1.0" standalone="no"?>
<!DOCTYPE svg PUBLIC "-//W3C//DTD SVG 20010904//EN"
 "http://www.w3.org/TR/2001/REC-SVG-20010904/DTD/svg10.dtd">
<svg version="1.0" xmlns="http://www.w3.org/2000/svg"
 width="700.000000pt" height="700.000000pt" viewBox="0 0 700.000000 700.000000"
 preserveAspectRatio="xMidYMid meet">
<metadata>
Created by potrace 1.14, written by Peter Selinger 2001-2017
</metadata>
<g transform="translate(0.000000,700.000000) scale(0.100000,-0.100000)"
fill="#000000" stroke="none">
<path d="M3280 6993 c-19 -1 -87 -8 -150 -14 -507 -48 -1041 -231 -1486 -509
-1421 -891 -2009 -2649 -1412 -4228 61 -161 206 -454 298 -600 157 -251 395
-535 609 -729 558 -504 1225 -804 1986 -893 155 -18 460 -24 620 -11 496 39
907 152 1330 366 217 109 341 186 528 326 1022 766 1543 2030 1361 3299 -84
588 -315 1141 -673 1615 -666 880 -1709 1393 -2811 1383 -91 -1 -181 -3 -200
-5z m161 -1739 c237 -483 480 -979 539 -1102 l109 -222 -236 -275 c-129 -151
-238 -273 -242 -271 -3 2 -141 288 -306 635 -165 347 -302 631 -305 631 -3 0
-145 -287 -315 -637 l-310 -637 -710 -650 c-391 -358 -718 -657 -727 -664 -10
-8 96 211 235 485 1386 2741 1823 3601 1830 3594 4 -4 201 -403 438 -887z
m1817 -3580 l-353 -406 -5 972 -5 971 -727 -834 c-401 -459 -734 -839 -741
-845 -10 -9 -88 145 -361 716 -192 400 -352 730 -356 735 -3 4 -208 -128 -456
-294 -1110 -745 -1298 -870 -1284 -856 24 25 2064 1727 2070 1727 3 0 115
-192 249 -426 134 -233 247 -427 251 -429 4 -2 470 528 1036 1178 l1029 1183
3 -1494 2 -1493 -352 -405z"/>
</g>
</svg>
