<svg width="71" height="70" viewBox="0 0 71 70" fill="none" xmlns="http://www.w3.org/2000/svg">
<path d="M13.2 53.261V53.0074C13.2 50.9784 13.4536 48.9494 13.7072 46.9204V46.6668H13.4536C11.6782 45.906 9.90284 45.1451 8.12747 44.1306H7.87385V44.3842C6.60573 46.6668 5.84486 49.2031 5.08398 51.4857V51.7393H5.33761C7.87385 52.5002 10.4101 53.0074 13.2 53.261V53.261Z" fill="#43B02A"/>
<path d="M18.5263 18.0073C18.5263 18.0073 18.5263 17.7537 18.5263 18.0073C17.0045 18.0073 15.4828 18.0073 13.9611 18.2609C14.2147 19.7827 14.4683 21.3044 14.7219 22.8261C15.7364 21.0508 17.0045 19.2754 18.5263 18.0073Z" fill="#43B02A"/>
<path d="M13.2 55.0365C10.6638 54.5292 8.6348 54.2756 6.35218 53.7683L5.59131 53.5147L5.84493 54.022C7.87392 57.0654 10.4102 59.8553 13.2 62.1379L13.7073 62.3916V61.8843C13.2 59.6017 13.2 57.3191 13.2 55.0365Z" fill="#43B02A"/>
<path d="M23.8519 1.77539C21.062 2.78989 18.5258 4.05801 16.2432 5.57975C18.0185 5.83338 19.7939 6.34062 21.5693 6.84787C22.3301 5.0725 23.091 3.29714 23.8519 1.77539Z" fill="#43B02A"/>
<path d="M35.265 0C33.9969 0 32.4752 -2.45654e-07 31.207 0.253624C32.9824 1.52174 34.7578 3.04349 36.5331 4.56523L37.8013 5.57973L36.5331 6.84785C35.5187 7.86235 34.2505 9.13047 33.236 10.3986C33.236 10.3986 32.9824 10.6522 32.7288 10.9058C33.4897 10.9058 34.5042 10.6522 35.265 10.6522C48.4535 10.6522 59.1057 21.3044 59.1057 34.4929C59.1057 47.6813 48.4535 58.3335 35.265 58.3335C30.6998 58.3335 26.3882 57.0654 22.8374 54.7828C21.0621 55.0364 19.2867 55.0364 17.5113 55.0364C16.7505 55.0364 15.736 55.0364 14.9751 55.0364C14.9751 57.8263 15.2287 60.6162 15.736 63.406C21.3157 67.2104 27.9099 69.493 35.265 69.493C54.5405 69.493 70.0115 54.0219 70.0115 34.7465C70.0115 15.4711 54.5405 0 35.265 0Z" fill="#43B02A"/>
<path d="M30.7003 8.11597C31.4612 7.3551 32.222 6.59423 32.7293 5.83335C31.2075 4.56523 29.4322 3.29711 27.6568 2.02899C26.6423 3.80436 25.6278 5.83335 24.8669 7.86234C26.3887 8.36959 27.9104 9.13047 29.4322 9.89134C29.9394 8.87684 30.4467 8.36959 30.7003 8.11597Z" fill="#43B02A"/>
<path d="M6.85929 27.8987H7.11292C8.63466 26.6305 10.41 25.616 12.1854 24.6016H12.439V24.3479C11.9318 22.3189 11.4245 20.2899 11.1709 18.2609V18.0073H10.9173C8.38104 18.5146 5.8448 19.2754 3.30856 20.0363H3.05493V20.2899C4.32305 23.3334 5.59117 25.616 6.85929 27.8987Z" fill="#43B02A"/>
<path d="M6.60594 31.4494C4.57694 33.2248 2.80158 34.7465 1.02621 36.5219L0.772583 36.7755L1.02621 37.0291C2.80158 38.5509 4.83057 40.0726 6.85956 41.3407L7.11318 41.5944V41.3407C8.12768 39.819 9.14218 38.0436 10.1567 36.5219V36.2683L10.4103 36.0146C8.88855 34.7465 7.87406 33.2248 6.60594 31.4494Z" fill="#43B02A"/>
<path d="M20.3014 53.261H20.8086L20.3014 52.7538C18.526 51.232 16.7506 49.4567 15.4825 47.4277L14.9753 47.174V47.4277C14.7216 49.203 14.7216 50.9784 14.468 52.7538V53.0074H14.7216C15.4825 53.0074 16.497 53.0074 17.2579 53.0074C18.2724 53.5146 19.2869 53.5146 20.3014 53.261Z" fill="#43B02A"/>
<path d="M19.0332 14.9639C19.2868 13.1885 19.794 11.6667 20.3013 9.89137C18.2723 9.1305 15.9897 8.62325 13.7071 8.36963C13.4534 10.6522 13.4534 12.9349 13.7071 15.2175C15.4824 14.9639 17.2578 14.9639 19.0332 14.9639Z" fill="#43B02A"/>
<path d="M22.3306 14.7102C23.8523 13.6957 25.3741 12.9348 27.1494 12.4276C25.8813 11.9203 24.6132 11.4131 23.3451 10.9059C23.0914 12.174 22.8378 13.4421 22.3306 14.7102Z" fill="#43B02A"/>
<path d="M6.09841 43.1161C4.06941 41.848 2.29405 40.5799 0.772301 39.3117L0.518677 38.8045V39.3117C1.02592 42.6089 1.7868 45.906 3.30854 48.9495L3.56217 49.4567L3.81579 48.9495C4.32304 47.1741 5.08391 45.1451 6.09841 43.1161Z" fill="#43B02A"/>
<path d="M10.6641 10.145C8.63513 12.174 6.85976 14.4566 5.33801 16.9928C7.11338 16.4856 8.88875 15.9783 10.6641 15.7247C10.6641 13.6957 10.6641 11.9204 10.6641 10.145Z" fill="#43B02A"/>
<path d="M11.6783 34.4929V33.9856C11.6783 31.9567 12.1855 29.674 12.6928 27.8987L12.9464 27.3914L12.4392 27.645C11.1711 28.4059 9.64931 29.4204 8.38119 30.1813L8.12756 30.4349L8.38119 30.6885C9.39568 31.9566 10.1566 33.2248 11.1711 34.4929H11.6783Z" fill="#43B02A"/>
<path d="M11.9319 38.0436V37.5363L11.6783 38.0436C10.6638 39.3117 9.90292 40.8335 8.88843 42.3552V42.6088H9.14205C10.6638 43.3697 12.1855 44.1306 13.7073 44.8914L14.2145 45.1451L13.9609 44.6378C12.9464 42.3552 12.1855 40.3262 11.9319 38.0436Z" fill="#43B02A"/>
<path d="M5.08408 29.674V29.4204C4.06958 27.645 3.05509 25.8697 2.29421 23.8407L2.04059 23.3334L1.78697 23.8407C0.772469 26.8842 0.265221 30.1813 0.0115967 33.732V34.2393L0.518845 33.9856C2.04059 32.4639 3.56233 30.9422 5.08408 29.674Z" fill="#43B02A"/>
</svg>
