<svg width="1001" height="1001" viewBox="0 0 1001 1001" fill="none" xmlns="http://www.w3.org/2000/svg">
<path d="M156.957 932.494L151.268 945.653H162.645L156.957 932.494ZM156.957 923.094L173.217 960.253H168.602L163.964 949.291H149.999L145.36 960.253H140.746L156.957 923.094Z" fill="url(#paint0_linear)"/>
<path d="M193.817 924.51H198.114V946.752C198.114 950.365 198.879 953.018 200.409 954.711C201.955 956.403 204.372 957.25 207.66 957.25C210.948 957.25 213.357 956.403 214.886 954.711C216.433 953.018 217.206 950.365 217.206 946.752V924.51H221.527V946.752C221.527 951.586 220.372 955.207 218.06 957.616C215.765 960.009 212.299 961.205 207.66 961.205C203.038 961.205 199.571 960.009 197.26 957.616C194.965 955.207 193.817 951.586 193.817 946.752V924.51Z" fill="url(#paint1_linear)"/>
<path d="M266.713 941.796H281.459V942.992C281.459 948.623 279.864 953.067 276.674 956.322C273.483 959.577 269.13 961.205 263.612 961.205C261.936 961.205 260.332 961.026 258.803 960.668C257.289 960.31 255.889 959.789 254.603 959.105C251.674 957.494 249.411 955.272 247.816 952.44C246.221 949.592 245.424 946.361 245.424 942.748C245.424 939.769 245.896 937.084 246.84 934.691C247.8 932.282 249.24 930.166 251.161 928.344C252.772 926.814 254.644 925.658 256.776 924.877C258.908 924.095 261.268 923.705 263.856 923.705C267.29 923.705 270.269 924.331 272.792 925.585C275.315 926.822 277.406 928.693 279.066 931.2L275.502 934.056C274.216 931.892 272.613 930.272 270.692 929.198C268.772 928.108 266.542 927.562 264.003 927.562C259.852 927.562 256.483 928.962 253.895 931.761C251.307 934.561 250.013 938.223 250.013 942.748C250.013 947.012 251.324 950.511 253.944 953.246C256.581 955.98 259.934 957.347 264.003 957.347C267.583 957.347 270.562 956.265 272.938 954.1C275.331 951.919 276.657 949.087 276.918 945.604H266.713V941.796Z" fill="url(#paint2_linear)"/>
<path d="M305.136 924.51H309.432V946.752C309.432 950.365 310.197 953.018 311.727 954.711C313.274 956.403 315.691 957.25 318.978 957.25C322.266 957.25 324.675 956.403 326.205 954.711C327.751 953.018 328.524 950.365 328.524 946.752V924.51H332.845V946.752C332.845 951.586 331.69 955.207 329.379 957.616C327.084 960.009 323.617 961.205 318.978 961.205C314.356 961.205 310.889 960.009 308.578 957.616C306.283 955.207 305.136 951.586 305.136 946.752V924.51Z" fill="url(#paint3_linear)"/>
<path d="M371.83 940.404C374.157 941.397 375.907 942.715 377.079 944.359C378.267 946.003 378.861 947.948 378.861 950.194C378.861 953.482 377.811 956.135 375.712 958.153C373.628 960.155 370.861 961.156 367.411 961.156C364.595 961.156 362.235 960.44 360.331 959.008C358.427 957.559 357.141 955.508 356.473 952.855L360.331 950.951C360.852 953.116 361.706 954.76 362.894 955.883C364.099 956.989 365.604 957.543 367.411 957.543C369.543 957.543 371.268 956.932 372.587 955.712C373.905 954.475 374.564 952.872 374.564 950.902C374.564 949.307 374.1 947.924 373.173 946.752C372.261 945.564 370.878 944.563 369.022 943.749L364.677 941.893C362.3 940.9 360.526 939.623 359.354 938.06C358.199 936.498 357.621 934.626 357.621 932.445C357.621 929.906 358.565 927.806 360.453 926.146C362.341 924.486 364.75 923.656 367.679 923.656C369.828 923.656 371.683 924.112 373.246 925.023C374.825 925.935 376.053 927.277 376.932 929.052L373.417 931.298C372.619 929.914 371.724 928.889 370.731 928.221C369.738 927.538 368.615 927.196 367.362 927.196C365.767 927.196 364.457 927.684 363.431 928.661C362.422 929.637 361.918 930.883 361.918 932.396C361.918 933.666 362.308 934.764 363.09 935.692C363.871 936.62 365.083 937.442 366.727 938.158L371.83 940.404Z" fill="url(#paint4_linear)"/>
<path d="M408.3 960.253V928.563H398.192V924.51H422.655V928.563H412.596V960.253H408.3Z" fill="url(#paint5_linear)"/>
<path d="M460.98 957.201C462.933 957.201 464.789 956.835 466.547 956.102C468.321 955.354 469.916 954.271 471.332 952.855C472.732 951.455 473.798 949.869 474.53 948.094C475.262 946.32 475.629 944.441 475.629 942.455C475.629 940.453 475.254 938.549 474.506 936.742C473.773 934.935 472.715 933.34 471.332 931.957C469.932 930.557 468.345 929.491 466.571 928.759C464.813 928.026 462.95 927.66 460.98 927.66C458.995 927.66 457.115 928.026 455.341 928.759C453.567 929.491 451.996 930.557 450.629 931.957C449.229 933.373 448.163 934.976 447.43 936.766C446.698 938.557 446.332 940.453 446.332 942.455C446.332 944.441 446.69 946.312 447.406 948.07C448.138 949.828 449.213 951.423 450.629 952.855C452.061 954.288 453.648 955.37 455.389 956.102C457.147 956.835 459.011 957.201 460.98 957.201ZM480.072 942.455C480.072 945.01 479.6 947.419 478.656 949.681C477.712 951.944 476.337 953.954 474.53 955.712C472.723 957.469 470.64 958.829 468.28 959.789C465.936 960.733 463.503 961.205 460.98 961.205C458.457 961.205 456.024 960.733 453.68 959.789C451.353 958.829 449.286 957.469 447.479 955.712C445.656 953.938 444.265 951.919 443.304 949.657C442.36 947.395 441.888 944.994 441.888 942.455C441.888 939.899 442.36 937.491 443.304 935.228C444.265 932.95 445.656 930.923 447.479 929.149C449.27 927.408 451.337 926.065 453.68 925.121C456.024 924.177 458.457 923.705 460.98 923.705C463.519 923.705 465.961 924.177 468.304 925.121C470.665 926.065 472.74 927.408 474.53 929.149C476.337 930.907 477.712 932.925 478.656 935.204C479.6 937.466 480.072 939.883 480.072 942.455Z" fill="url(#paint6_linear)"/>
<path d="M552.059 961.644L540.951 935.961L536.459 960.253H532.308L539.559 923.094L552.059 952.66L564.559 923.094L571.81 960.253H567.66L563.119 935.961L552.059 961.644Z" fill="url(#paint7_linear)"/>
<path d="M606.107 932.494L600.419 945.653H611.796L606.107 932.494ZM606.107 923.094L622.367 960.253H617.753L613.114 949.291H599.149L594.511 960.253H589.896L606.107 923.094Z" fill="url(#paint8_linear)"/>
<path d="M643.554 960.253V924.51H651.952C654.345 924.51 656.094 924.649 657.201 924.926C658.324 925.186 659.309 925.642 660.155 926.293C661.213 927.123 662.035 928.238 662.621 929.637C663.207 931.021 663.5 932.559 663.5 934.252C663.5 937.181 662.678 939.411 661.034 940.941C659.406 942.455 657.014 943.212 653.856 943.212H653.099L666.747 960.253H661.351L648.314 943.212H647.704V960.253H643.554ZM647.704 928.099V940.062H650.951C654.271 940.062 656.493 939.639 657.616 938.793C658.739 937.93 659.301 936.433 659.301 934.301C659.301 932.006 658.723 930.402 657.567 929.491C656.412 928.563 654.206 928.099 650.951 928.099H647.704Z" fill="url(#paint9_linear)"/>
<path d="M700.824 940.404C703.152 941.397 704.901 942.715 706.073 944.359C707.261 946.003 707.855 947.948 707.855 950.194C707.855 953.482 706.805 956.135 704.706 958.153C702.623 960.155 699.856 961.156 696.405 961.156C693.589 961.156 691.229 960.44 689.325 959.008C687.421 957.559 686.135 955.508 685.468 952.855L689.325 950.951C689.846 953.116 690.7 954.76 691.888 955.883C693.093 956.989 694.598 957.543 696.405 957.543C698.537 957.543 700.263 956.932 701.581 955.712C702.899 954.475 703.558 952.872 703.558 950.902C703.558 949.307 703.095 947.924 702.167 946.752C701.255 945.564 699.872 944.563 698.016 943.749L693.671 941.893C691.294 940.9 689.52 939.623 688.348 938.06C687.193 936.498 686.615 934.626 686.615 932.445C686.615 929.906 687.559 927.806 689.447 926.146C691.335 924.486 693.744 923.656 696.674 923.656C698.822 923.656 700.678 924.112 702.24 925.023C703.819 925.935 705.048 927.277 705.927 929.052L702.411 931.298C701.613 929.914 700.718 928.889 699.725 928.221C698.733 927.538 697.61 927.196 696.356 927.196C694.761 927.196 693.451 927.684 692.426 928.661C691.416 929.637 690.912 930.883 690.912 932.396C690.912 933.666 691.303 934.764 692.084 935.692C692.865 936.62 694.078 937.442 695.721 938.158L700.824 940.404Z" fill="url(#paint10_linear)"/>
<path d="M748.5 957.201C750.453 957.201 752.308 956.835 754.066 956.102C755.84 955.354 757.435 954.271 758.851 952.855C760.251 951.455 761.317 949.869 762.05 948.094C762.782 946.32 763.148 944.441 763.148 942.455C763.148 940.453 762.774 938.549 762.025 936.742C761.293 934.935 760.235 933.34 758.851 931.957C757.452 930.557 755.865 929.491 754.091 928.759C752.333 928.026 750.469 927.66 748.5 927.66C746.514 927.66 744.634 928.026 742.86 928.759C741.086 929.491 739.515 930.557 738.148 931.957C736.749 933.373 735.682 934.976 734.95 936.766C734.218 938.557 733.851 940.453 733.851 942.455C733.851 944.441 734.209 946.312 734.926 948.07C735.658 949.828 736.732 951.423 738.148 952.855C739.581 954.288 741.167 955.37 742.909 956.102C744.667 956.835 746.53 957.201 748.5 957.201ZM767.592 942.455C767.592 945.01 767.12 947.419 766.176 949.681C765.232 951.944 763.856 953.954 762.05 955.712C760.243 957.469 758.16 958.829 755.8 959.789C753.456 960.733 751.023 961.205 748.5 961.205C745.977 961.205 743.544 960.733 741.2 959.789C738.873 958.829 736.805 957.469 734.999 955.712C733.176 953.938 731.784 951.919 730.824 949.657C729.88 947.395 729.408 944.994 729.408 942.455C729.408 939.899 729.88 937.491 730.824 935.228C731.784 932.95 733.176 930.923 734.999 929.149C736.789 927.408 738.856 926.065 741.2 925.121C743.544 924.177 745.977 923.705 748.5 923.705C751.039 923.705 753.48 924.177 755.824 925.121C758.184 926.065 760.259 927.408 762.05 929.149C763.856 930.907 765.232 932.925 766.176 935.204C767.12 937.466 767.592 939.883 767.592 942.455Z" fill="url(#paint11_linear)"/>
<path d="M792.05 960.253V924.51H796.298V956.2H809.799V960.253H792.05Z" fill="url(#paint12_linear)"/>
<path d="M843.656 932.494L837.968 945.653H849.345L843.656 932.494ZM843.656 923.094L859.916 960.253H855.302L850.663 949.291H836.698L832.059 960.253H827.445L843.656 923.094Z" fill="url(#paint13_linear)"/>
<path d="M602.838 767.753L458.862 862.753L457.61 37.7526L585.31 115.253L718.018 364.003L803.152 250.253L863.246 285.253V600.253L803.152 639.003L796.892 394.003L708.003 530.253L607.845 376.503L602.838 767.753Z" fill="url(#paint14_linear)"/>
<path d="M312.382 382.753L198.453 385.253V260.253L312.382 235.253V382.753Z" fill="url(#paint15_linear)"/>
<path d="M312.382 700.253L198.453 742.753V487.753L312.382 495.253V700.253Z" fill="url(#paint16_linear)"/>
<defs>
<linearGradient id="paint0_linear" x1="509.081" y1="912.753" x2="509.081" y2="972.753" gradientUnits="userSpaceOnUse">
<stop stop-color="white"/>
<stop offset="1" stop-color="#ECE9E6"/>
</linearGradient>
<linearGradient id="paint1_linear" x1="509.081" y1="912.753" x2="509.081" y2="972.753" gradientUnits="userSpaceOnUse">
<stop stop-color="white"/>
<stop offset="1" stop-color="#ECE9E6"/>
</linearGradient>
<linearGradient id="paint2_linear" x1="509.081" y1="912.753" x2="509.081" y2="972.753" gradientUnits="userSpaceOnUse">
<stop stop-color="white"/>
<stop offset="1" stop-color="#ECE9E6"/>
</linearGradient>
<linearGradient id="paint3_linear" x1="509.081" y1="912.753" x2="509.081" y2="972.753" gradientUnits="userSpaceOnUse">
<stop stop-color="white"/>
<stop offset="1" stop-color="#ECE9E6"/>
</linearGradient>
<linearGradient id="paint4_linear" x1="509.081" y1="912.753" x2="509.081" y2="972.753" gradientUnits="userSpaceOnUse">
<stop stop-color="white"/>
<stop offset="1" stop-color="#ECE9E6"/>
</linearGradient>
<linearGradient id="paint5_linear" x1="509.081" y1="912.753" x2="509.081" y2="972.753" gradientUnits="userSpaceOnUse">
<stop stop-color="white"/>
<stop offset="1" stop-color="#ECE9E6"/>
</linearGradient>
<linearGradient id="paint6_linear" x1="509.081" y1="912.753" x2="509.081" y2="972.753" gradientUnits="userSpaceOnUse">
<stop stop-color="white"/>
<stop offset="1" stop-color="#ECE9E6"/>
</linearGradient>
<linearGradient id="paint7_linear" x1="509.081" y1="912.753" x2="509.081" y2="972.753" gradientUnits="userSpaceOnUse">
<stop stop-color="white"/>
<stop offset="1" stop-color="#ECE9E6"/>
</linearGradient>
<linearGradient id="paint8_linear" x1="509.081" y1="912.753" x2="509.081" y2="972.753" gradientUnits="userSpaceOnUse">
<stop stop-color="white"/>
<stop offset="1" stop-color="#ECE9E6"/>
</linearGradient>
<linearGradient id="paint9_linear" x1="509.081" y1="912.753" x2="509.081" y2="972.753" gradientUnits="userSpaceOnUse">
<stop stop-color="white"/>
<stop offset="1" stop-color="#ECE9E6"/>
</linearGradient>
<linearGradient id="paint10_linear" x1="509.081" y1="912.753" x2="509.081" y2="972.753" gradientUnits="userSpaceOnUse">
<stop stop-color="white"/>
<stop offset="1" stop-color="#ECE9E6"/>
</linearGradient>
<linearGradient id="paint11_linear" x1="509.081" y1="912.753" x2="509.081" y2="972.753" gradientUnits="userSpaceOnUse">
<stop stop-color="white"/>
<stop offset="1" stop-color="#ECE9E6"/>
</linearGradient>
<linearGradient id="paint12_linear" x1="509.081" y1="912.753" x2="509.081" y2="972.753" gradientUnits="userSpaceOnUse">
<stop stop-color="white"/>
<stop offset="1" stop-color="#ECE9E6"/>
</linearGradient>
<linearGradient id="paint13_linear" x1="509.081" y1="912.753" x2="509.081" y2="972.753" gradientUnits="userSpaceOnUse">
<stop stop-color="white"/>
<stop offset="1" stop-color="#ECE9E6"/>
</linearGradient>
<linearGradient id="paint14_linear" x1="660.428" y1="37.7526" x2="660.428" y2="862.753" gradientUnits="userSpaceOnUse">
<stop stop-color="#ECE9E6"/>
<stop offset="1" stop-color="white"/>
</linearGradient>
<linearGradient id="paint15_linear" x1="255.418" y1="235.253" x2="255.418" y2="385.253" gradientUnits="userSpaceOnUse">
<stop stop-color="#ECE9E6"/>
<stop offset="1" stop-color="white"/>
</linearGradient>
<linearGradient id="paint16_linear" x1="255.418" y1="487.753" x2="255.418" y2="742.753" gradientUnits="userSpaceOnUse">
<stop stop-color="#ECE9E6"/>
<stop offset="1" stop-color="white"/>
</linearGradient>
</defs>
</svg>
