<svg width="1001" height="1001" viewBox="0 0 1001 1001" fill="none" xmlns="http://www.w3.org/2000/svg">
<path d="M157.153 932.494L151.465 945.653H162.842L157.153 932.494ZM157.153 923.095L173.413 960.253H168.799L164.16 949.291H150.195L145.557 960.253H140.942L157.153 923.095Z" fill="url(#paint0_linear)"/>
<path d="M194.014 924.511H198.311V946.752C198.311 950.365 199.076 953.018 200.605 954.711C202.152 956.403 204.569 957.25 207.856 957.25C211.144 957.25 213.553 956.403 215.083 954.711C216.629 953.018 217.402 950.365 217.402 946.752V924.511H221.724V946.752C221.724 951.586 220.568 955.207 218.257 957.616C215.962 960.009 212.495 961.205 207.856 961.205C203.234 961.205 199.767 960.009 197.456 957.616C195.161 955.207 194.014 951.586 194.014 946.752V924.511Z" fill="url(#paint1_linear)"/>
<path d="M266.909 941.796H281.655V942.992C281.655 948.624 280.06 953.067 276.87 956.322C273.68 959.577 269.326 961.205 263.809 961.205C262.132 961.205 260.529 961.026 258.999 960.668C257.485 960.31 256.086 959.789 254.8 959.105C251.87 957.494 249.608 955.272 248.013 952.44C246.418 949.592 245.62 946.361 245.62 942.748C245.62 939.769 246.092 937.084 247.036 934.691C247.996 932.282 249.437 930.166 251.357 928.344C252.969 926.814 254.841 925.658 256.973 924.877C259.105 924.096 261.465 923.705 264.053 923.705C267.487 923.705 270.466 924.332 272.988 925.585C275.511 926.822 277.603 928.694 279.263 931.2L275.698 934.056C274.412 931.892 272.809 930.272 270.889 929.198C268.968 928.108 266.738 927.562 264.199 927.562C260.049 927.562 256.68 928.962 254.092 931.762C251.504 934.561 250.21 938.223 250.21 942.748C250.21 947.012 251.52 950.512 254.141 953.246C256.777 955.98 260.13 957.347 264.199 957.347C267.78 957.347 270.758 956.265 273.135 954.1C275.527 951.919 276.854 949.087 277.114 945.604H266.909V941.796Z" fill="url(#paint2_linear)"/>
<path d="M305.332 924.511H309.629V946.752C309.629 950.365 310.394 953.018 311.924 954.711C313.47 956.403 315.887 957.25 319.175 957.25C322.463 957.25 324.871 956.403 326.401 954.711C327.948 953.018 328.721 950.365 328.721 946.752V924.511H333.042V946.752C333.042 951.586 331.886 955.207 329.575 957.616C327.28 960.009 323.813 961.205 319.175 961.205C314.552 961.205 311.086 960.009 308.774 957.616C306.48 955.207 305.332 951.586 305.332 946.752V924.511Z" fill="url(#paint3_linear)"/>
<path d="M372.026 940.404C374.354 941.397 376.104 942.715 377.275 944.359C378.464 946.003 379.058 947.948 379.058 950.194C379.058 953.482 378.008 956.135 375.908 958.153C373.825 960.155 371.058 961.156 367.607 961.156C364.792 961.156 362.432 960.44 360.527 959.008C358.623 957.559 357.337 955.508 356.67 952.855L360.527 950.951C361.048 953.116 361.903 954.76 363.091 955.883C364.295 956.989 365.801 957.543 367.607 957.543C369.74 957.543 371.465 956.932 372.783 955.712C374.102 954.475 374.761 952.872 374.761 950.902C374.761 949.307 374.297 947.924 373.369 946.752C372.458 945.564 371.074 944.563 369.219 943.749L364.873 941.893C362.497 940.901 360.723 939.623 359.551 938.06C358.395 936.498 357.817 934.626 357.817 932.445C357.817 929.906 358.761 927.806 360.649 926.146C362.537 924.486 364.946 923.656 367.876 923.656C370.024 923.656 371.88 924.112 373.442 925.023C375.021 925.935 376.25 927.277 377.129 929.052L373.613 931.298C372.816 929.914 371.921 928.889 370.928 928.221C369.935 927.538 368.812 927.196 367.559 927.196C365.964 927.196 364.653 927.684 363.628 928.661C362.619 929.638 362.114 930.883 362.114 932.396C362.114 933.666 362.505 934.764 363.286 935.692C364.067 936.62 365.28 937.442 366.924 938.158L372.026 940.404Z" fill="url(#paint4_linear)"/>
<path d="M408.496 960.253V928.563H398.389V924.511H422.852V928.563H412.793V960.253H408.496Z" fill="url(#paint5_linear)"/>
<path d="M461.177 957.201C463.13 957.201 464.985 956.835 466.743 956.102C468.517 955.354 470.112 954.271 471.528 952.855C472.928 951.456 473.994 949.869 474.727 948.095C475.459 946.32 475.825 944.441 475.825 942.455C475.825 940.453 475.451 938.549 474.702 936.742C473.97 934.935 472.912 933.34 471.528 931.957C470.129 930.557 468.542 929.491 466.768 928.759C465.01 928.026 463.146 927.66 461.177 927.66C459.191 927.66 457.311 928.026 455.537 928.759C453.763 929.491 452.192 930.557 450.825 931.957C449.425 933.373 448.359 934.976 447.627 936.766C446.895 938.557 446.528 940.453 446.528 942.455C446.528 944.441 446.886 946.312 447.603 948.07C448.335 949.828 449.409 951.423 450.825 952.855C452.258 954.288 453.844 955.37 455.586 956.102C457.344 956.835 459.207 957.201 461.177 957.201ZM480.269 942.455C480.269 945.01 479.797 947.419 478.853 949.681C477.909 951.944 476.533 953.954 474.727 955.712C472.92 957.47 470.837 958.829 468.477 959.789C466.133 960.733 463.7 961.205 461.177 961.205C458.654 961.205 456.221 960.733 453.877 959.789C451.55 958.829 449.482 957.47 447.676 955.712C445.853 953.938 444.461 951.919 443.501 949.657C442.557 947.395 442.085 944.994 442.085 942.455C442.085 939.9 442.557 937.491 443.501 935.228C444.461 932.95 445.853 930.923 447.676 929.149C449.466 927.408 451.533 926.065 453.877 925.121C456.221 924.177 458.654 923.705 461.177 923.705C463.716 923.705 466.157 924.177 468.501 925.121C470.861 926.065 472.936 927.408 474.727 929.149C476.533 930.907 477.909 932.925 478.853 935.204C479.797 937.466 480.269 939.883 480.269 942.455Z" fill="url(#paint6_linear)"/>
<path d="M552.256 961.644L541.147 935.961L536.655 960.253H532.505L539.756 923.095L552.256 952.66L564.756 923.095L572.007 960.253H567.856L563.315 935.961L552.256 961.644Z" fill="url(#paint7_linear)"/>
<path d="M606.304 932.494L600.615 945.653H611.992L606.304 932.494ZM606.304 923.095L622.564 960.253H617.949L613.311 949.291H599.346L594.707 960.253H590.093L606.304 923.095Z" fill="url(#paint8_linear)"/>
<path d="M643.75 960.253V924.511H652.148C654.541 924.511 656.291 924.649 657.398 924.926C658.521 925.186 659.505 925.642 660.352 926.293C661.41 927.123 662.231 928.238 662.817 929.638C663.403 931.021 663.696 932.559 663.696 934.252C663.696 937.181 662.874 939.411 661.231 940.941C659.603 942.455 657.21 943.212 654.053 943.212H653.296L666.943 960.253H661.548L648.511 943.212H647.9V960.253H643.75ZM647.9 928.099V940.062H651.148C654.468 940.062 656.69 939.639 657.813 938.793C658.936 937.93 659.497 936.433 659.497 934.301C659.497 932.006 658.919 930.402 657.764 929.491C656.608 928.563 654.403 928.099 651.148 928.099H647.9Z" fill="url(#paint9_linear)"/>
<path d="M701.021 940.404C703.348 941.397 705.098 942.715 706.27 944.359C707.458 946.003 708.052 947.948 708.052 950.194C708.052 953.482 707.002 956.135 704.902 958.153C702.819 960.155 700.052 961.156 696.602 961.156C693.786 961.156 691.426 960.44 689.522 959.008C687.617 957.559 686.331 955.508 685.664 952.855L689.522 950.951C690.042 953.116 690.897 954.76 692.085 955.883C693.289 956.989 694.795 957.543 696.602 957.543C698.734 957.543 700.459 956.932 701.777 955.712C703.096 954.475 703.755 952.872 703.755 950.902C703.755 949.307 703.291 947.924 702.363 946.752C701.452 945.564 700.068 944.563 698.213 943.749L693.867 941.893C691.491 940.901 689.717 939.623 688.545 938.06C687.389 936.498 686.812 934.626 686.812 932.445C686.812 929.906 687.756 927.806 689.644 926.146C691.532 924.486 693.94 923.656 696.87 923.656C699.019 923.656 700.874 924.112 702.437 925.023C704.015 925.935 705.244 927.277 706.123 929.052L702.607 931.298C701.81 929.914 700.915 928.889 699.922 928.221C698.929 927.538 697.806 927.196 696.553 927.196C694.958 927.196 693.648 927.684 692.622 928.661C691.613 929.638 691.108 930.883 691.108 932.396C691.108 933.666 691.499 934.764 692.28 935.692C693.062 936.62 694.274 937.442 695.918 938.158L701.021 940.404Z" fill="url(#paint10_linear)"/>
<path d="M748.696 957.201C750.649 957.201 752.505 956.835 754.263 956.102C756.037 955.354 757.632 954.271 759.048 952.855C760.448 951.456 761.514 949.869 762.246 948.095C762.979 946.32 763.345 944.441 763.345 942.455C763.345 940.453 762.97 938.549 762.222 936.742C761.489 934.935 760.431 933.34 759.048 931.957C757.648 930.557 756.061 929.491 754.287 928.759C752.529 928.026 750.666 927.66 748.696 927.66C746.711 927.66 744.831 928.026 743.057 928.759C741.283 929.491 739.712 930.557 738.345 931.957C736.945 933.373 735.879 934.976 735.147 936.766C734.414 938.557 734.048 940.453 734.048 942.455C734.048 944.441 734.406 946.312 735.122 948.07C735.855 949.828 736.929 951.423 738.345 952.855C739.777 954.288 741.364 955.37 743.106 956.102C744.863 956.835 746.727 957.201 748.696 957.201ZM767.788 942.455C767.788 945.01 767.316 947.419 766.372 949.681C765.428 951.944 764.053 953.954 762.246 955.712C760.44 957.47 758.356 958.829 755.996 959.789C753.652 960.733 751.219 961.205 748.696 961.205C746.174 961.205 743.74 960.733 741.397 959.789C739.069 958.829 737.002 957.47 735.195 955.712C733.372 953.938 731.981 951.919 731.021 949.657C730.077 947.395 729.605 944.994 729.605 942.455C729.605 939.9 730.077 937.491 731.021 935.228C731.981 932.95 733.372 930.923 735.195 929.149C736.986 927.408 739.053 926.065 741.397 925.121C743.74 924.177 746.174 923.705 748.696 923.705C751.235 923.705 753.677 924.177 756.021 925.121C758.381 926.065 760.456 927.408 762.246 929.149C764.053 930.907 765.428 932.925 766.372 935.204C767.316 937.466 767.788 939.883 767.788 942.455Z" fill="url(#paint11_linear)"/>
<path d="M792.246 960.253V924.511H796.494V956.2H809.995V960.253H792.246Z" fill="url(#paint12_linear)"/>
<path d="M843.853 932.494L838.164 945.653H849.541L843.853 932.494ZM843.853 923.095L860.112 960.253H855.498L850.859 949.291H836.895L832.256 960.253H827.642L843.853 923.095Z" fill="url(#paint13_linear)"/>
<path d="M603.034 767.753L459.059 862.753L457.807 37.7527L585.507 115.253L718.215 364.003L803.349 250.253L863.443 285.253V600.253L803.349 639.003L797.089 394.003L708.199 530.253L608.042 376.503L603.034 767.753Z" fill="url(#paint14_linear)"/>
<path d="M312.578 382.753L198.65 385.253V260.253L312.578 235.253V382.753Z" fill="url(#paint15_linear)"/>
<path d="M312.578 700.253L198.65 742.753V487.753L312.578 495.253V700.253Z" fill="url(#paint16_linear)"/>
<defs>
<linearGradient id="paint0_linear" x1="509.277" y1="912.753" x2="509.277" y2="972.753" gradientUnits="userSpaceOnUse">
<stop/>
<stop offset="1" stop-color="#434343"/>
</linearGradient>
<linearGradient id="paint1_linear" x1="509.277" y1="912.753" x2="509.277" y2="972.753" gradientUnits="userSpaceOnUse">
<stop/>
<stop offset="1" stop-color="#434343"/>
</linearGradient>
<linearGradient id="paint2_linear" x1="509.277" y1="912.753" x2="509.277" y2="972.753" gradientUnits="userSpaceOnUse">
<stop/>
<stop offset="1" stop-color="#434343"/>
</linearGradient>
<linearGradient id="paint3_linear" x1="509.277" y1="912.753" x2="509.277" y2="972.753" gradientUnits="userSpaceOnUse">
<stop/>
<stop offset="1" stop-color="#434343"/>
</linearGradient>
<linearGradient id="paint4_linear" x1="509.277" y1="912.753" x2="509.277" y2="972.753" gradientUnits="userSpaceOnUse">
<stop/>
<stop offset="1" stop-color="#434343"/>
</linearGradient>
<linearGradient id="paint5_linear" x1="509.277" y1="912.753" x2="509.277" y2="972.753" gradientUnits="userSpaceOnUse">
<stop/>
<stop offset="1" stop-color="#434343"/>
</linearGradient>
<linearGradient id="paint6_linear" x1="509.277" y1="912.753" x2="509.277" y2="972.753" gradientUnits="userSpaceOnUse">
<stop/>
<stop offset="1" stop-color="#434343"/>
</linearGradient>
<linearGradient id="paint7_linear" x1="509.277" y1="912.753" x2="509.277" y2="972.753" gradientUnits="userSpaceOnUse">
<stop/>
<stop offset="1" stop-color="#434343"/>
</linearGradient>
<linearGradient id="paint8_linear" x1="509.277" y1="912.753" x2="509.277" y2="972.753" gradientUnits="userSpaceOnUse">
<stop/>
<stop offset="1" stop-color="#434343"/>
</linearGradient>
<linearGradient id="paint9_linear" x1="509.277" y1="912.753" x2="509.277" y2="972.753" gradientUnits="userSpaceOnUse">
<stop/>
<stop offset="1" stop-color="#434343"/>
</linearGradient>
<linearGradient id="paint10_linear" x1="509.277" y1="912.753" x2="509.277" y2="972.753" gradientUnits="userSpaceOnUse">
<stop/>
<stop offset="1" stop-color="#434343"/>
</linearGradient>
<linearGradient id="paint11_linear" x1="509.277" y1="912.753" x2="509.277" y2="972.753" gradientUnits="userSpaceOnUse">
<stop/>
<stop offset="1" stop-color="#434343"/>
</linearGradient>
<linearGradient id="paint12_linear" x1="509.277" y1="912.753" x2="509.277" y2="972.753" gradientUnits="userSpaceOnUse">
<stop/>
<stop offset="1" stop-color="#434343"/>
</linearGradient>
<linearGradient id="paint13_linear" x1="509.277" y1="912.753" x2="509.277" y2="972.753" gradientUnits="userSpaceOnUse">
<stop/>
<stop offset="1" stop-color="#434343"/>
</linearGradient>
<linearGradient id="paint14_linear" x1="660.625" y1="37.7527" x2="660.625" y2="862.753" gradientUnits="userSpaceOnUse">
<stop/>
<stop offset="1" stop-color="#434343"/>
</linearGradient>
<linearGradient id="paint15_linear" x1="255.614" y1="235.253" x2="255.614" y2="385.253" gradientUnits="userSpaceOnUse">
<stop/>
<stop offset="1" stop-color="#434343"/>
</linearGradient>
<linearGradient id="paint16_linear" x1="255.614" y1="487.753" x2="255.614" y2="742.753" gradientUnits="userSpaceOnUse">
<stop/>
<stop offset="1" stop-color="#434343"/>
</linearGradient>
</defs>
</svg>
