<svg width="71" height="70" viewBox="0 0 71 70" fill="none" xmlns="http://www.w3.org/2000/svg">
<path d="M68.6912 31.8822L38.1366 1.31979C37.2907 0.4747 36.144 0 34.9483 0C33.7526 0 32.6059 0.4747 31.76 1.31979L25.4069 7.6682L33.4569 15.7182C37.685 14.2901 41.6881 18.3385 40.2366 22.5431L47.9959 30.3025C53.3443 28.4588 57.5553 35.1462 53.5381 39.1603C49.399 43.2993 42.5678 38.7118 44.7881 33.3259L37.546 26.0931V45.1321C41.4991 47.0915 41.0241 51.6712 38.9647 53.7258C37.9586 54.7314 36.5943 55.2963 35.1718 55.2963C33.7492 55.2963 32.385 54.7314 31.3788 53.7258C28.6335 50.9759 29.6491 46.3962 33.1366 44.9759V25.7572C29.8866 24.4275 29.2929 20.9541 30.2241 18.726L22.2882 10.7807L1.33203 31.74C0.486561 32.5856 0.0115967 33.7325 0.0115967 34.9283C0.0115967 36.1241 0.486561 37.2709 1.33203 38.1165L31.896 68.6789C32.7416 69.5239 33.8881 69.9986 35.0835 69.9986C36.2789 69.9986 37.4254 69.5239 38.271 68.6789L68.6912 38.2587C69.5366 37.4131 70.0116 36.2662 70.0116 35.0704C70.0116 33.8746 69.5366 32.7278 68.6912 31.8822V31.8822Z" fill="#F05033"/>
</svg>
