<svg width="18" height="18" viewBox="0 0 18 18" fill="none" xmlns="http://www.w3.org/2000/svg">
<path d="M16.0714 0H1.92857C0.863839 0 0 0.863839 0 1.92857V16.0714C0 17.1362 0.863839 18 1.92857 18H16.0714C17.1362 18 18 17.1362 18 16.0714V1.92857C18 0.863839 17.1362 0 16.0714 0ZM11.1415 15.4165C10.804 15.4768 10.6795 15.2679 10.6795 15.0951C10.6795 14.8781 10.6875 13.7692 10.6875 12.8732C10.6875 12.2464 10.4786 11.8487 10.2335 11.6397C11.7201 11.475 13.2871 11.2701 13.2871 8.70268C13.2871 7.97143 13.0259 7.6058 12.6 7.13571C12.6683 6.96295 12.8973 6.25179 12.5317 5.32768C11.9732 5.15491 10.6955 6.04687 10.6955 6.04687C10.1652 5.89821 9.59063 5.82187 9.02411 5.82187C8.45759 5.82187 7.88304 5.89821 7.35268 6.04687C7.35268 6.04687 6.075 5.15491 5.51652 5.32768C5.15089 6.24777 5.37589 6.95893 5.44821 7.13571C5.02232 7.6058 4.82143 7.97143 4.82143 8.70268C4.82143 11.258 6.32009 11.475 7.8067 11.6397C7.61384 11.8125 7.44107 12.1098 7.3808 12.5357C6.99911 12.7085 6.02277 13.0058 5.44018 11.9772C5.07455 11.3424 4.41563 11.2902 4.41563 11.2902C3.76473 11.2821 4.37143 11.7 4.37143 11.7C4.80536 11.9009 5.11071 12.6723 5.11071 12.6723C5.50045 13.8656 7.36473 13.4638 7.36473 13.4638C7.36473 14.0223 7.37277 14.9304 7.37277 15.0951C7.37277 15.2679 7.25223 15.4768 6.91071 15.4165C4.25893 14.5286 2.40268 12.0054 2.40268 9.05625C2.40268 5.36786 5.22321 2.56741 8.91161 2.56741C12.6 2.56741 15.5893 5.36786 15.5893 9.05625C15.5933 12.0054 13.7933 14.5326 11.1415 15.4165ZM7.2 12.9616C7.12366 12.9777 7.05134 12.9455 7.0433 12.8933C7.03527 12.833 7.0875 12.7808 7.16384 12.7647C7.24018 12.7567 7.3125 12.7888 7.32054 12.8411C7.33259 12.8933 7.28036 12.9455 7.2 12.9616ZM6.8183 12.9254C6.8183 12.9777 6.75804 13.0219 6.67768 13.0219C6.58929 13.0299 6.52902 12.9857 6.52902 12.9254C6.52902 12.8732 6.58929 12.829 6.66964 12.829C6.74598 12.821 6.8183 12.8652 6.8183 12.9254ZM6.26786 12.8813C6.25179 12.9335 6.17143 12.9576 6.10312 12.9335C6.02679 12.9174 5.97455 12.8571 5.99063 12.8049C6.0067 12.7527 6.08705 12.7286 6.15536 12.7446C6.23571 12.7688 6.28795 12.829 6.26786 12.8813ZM5.77366 12.6643C5.7375 12.7085 5.66116 12.7004 5.60089 12.6402C5.54062 12.5879 5.52455 12.5116 5.56473 12.4754C5.60089 12.4312 5.67723 12.4393 5.7375 12.4996C5.78973 12.5518 5.80982 12.6321 5.77366 12.6643ZM5.40804 12.2987C5.37188 12.3228 5.30357 12.2987 5.25937 12.2384C5.21518 12.1781 5.21518 12.1098 5.25937 12.0817C5.30357 12.0455 5.37188 12.0737 5.40804 12.1339C5.45223 12.1942 5.45223 12.2665 5.40804 12.2987V12.2987ZM5.14688 11.9089C5.11071 11.9451 5.05045 11.925 5.00625 11.8848C4.96205 11.8326 4.95402 11.7723 4.99018 11.7442C5.02634 11.708 5.08661 11.7281 5.1308 11.7683C5.175 11.8205 5.18304 11.8808 5.14688 11.9089ZM4.87768 11.6116C4.86161 11.6478 4.80937 11.6558 4.76518 11.6277C4.71295 11.6036 4.68884 11.5594 4.70491 11.5232C4.72098 11.4991 4.76518 11.4871 4.81741 11.5071C4.86964 11.5353 4.89375 11.5795 4.87768 11.6116Z" fill="#ECE9E6"/>
</svg>
