<svg width="25" height="20" viewBox="0 0 25 20" fill="none" xmlns="http://www.w3.org/2000/svg">
<path d="M9.69271 13.7865C9.69271 14.875 9.125 16.6562 7.78125 16.6562C6.4375 16.6562 5.86979 14.875 5.86979 13.7865C5.86979 12.6979 6.4375 10.9167 7.78125 10.9167C9.125 10.9167 9.69271 12.6979 9.69271 13.7865V13.7865ZM25 11.1563C25 12.8177 24.8333 14.5781 24.0885 16.1042C22.1146 20.0938 16.6875 20 12.8021 20C8.85417 20 3.10417 20.1406 1.05208 16.1042C0.291667 14.5938 0 12.8177 0 11.1563C0 8.97396 0.723958 6.91146 2.16146 5.23958C1.89062 4.41667 1.76042 3.55208 1.76042 2.69792C1.76042 1.57813 2.01563 1.01562 2.52083 0C4.88021 0 6.39062 0.46875 8.1875 1.875C9.69792 1.51562 11.25 1.35417 12.8073 1.35417C14.2135 1.35417 15.6302 1.50521 16.9948 1.83333C18.7656 0.442708 20.276 0 22.6094 0C23.1198 1.01562 23.3698 1.57813 23.3698 2.69792C23.3698 3.55208 23.2344 4.40104 22.9687 5.20833C24.401 6.89583 25 8.97396 25 11.1563V11.1563ZM21.651 13.7865C21.651 11.5 20.2604 9.48438 17.8229 9.48438C16.8385 9.48438 15.8958 9.66146 14.9063 9.79688C14.1302 9.91667 13.3542 9.96354 12.5573 9.96354C11.7656 9.96354 10.9896 9.91667 10.2083 9.79688C9.23437 9.66146 8.28125 9.48438 7.29167 9.48438C4.85417 9.48438 3.46354 11.5 3.46354 13.7865C3.46354 18.3594 7.65104 19.0625 11.2969 19.0625H13.8073C17.4688 19.0625 21.651 18.3646 21.651 13.7865V13.7865ZM17.349 10.9167C16.0052 10.9167 15.4375 12.6979 15.4375 13.7865C15.4375 14.875 16.0052 16.6562 17.349 16.6562C18.6927 16.6562 19.2604 14.875 19.2604 13.7865C19.2604 12.6979 18.6927 10.9167 17.349 10.9167Z" fill="#ECE9E6"/>
</svg>
