<svg width="71" height="70" viewBox="0 0 71 70" fill="none" xmlns="http://www.w3.org/2000/svg">
<path d="M0.0115967 70V0H70.0116V70H0.0115967Z" fill="#FFD600"/>
<path d="M45.7799 52.3969C47.1254 54.5825 48.5877 56.6767 51.6852 56.6767C54.2868 56.6767 55.6518 55.3836 55.6518 53.5947C55.6518 51.4539 54.2402 50.6936 51.3779 49.4472L49.8088 48.7783C45.2802 46.8572 42.2682 44.45 42.2682 39.3653C42.2682 34.6792 45.8557 31.1131 51.4616 31.1131C55.4535 31.1131 58.3216 32.4956 60.3904 36.1161L55.5021 39.2408C54.4268 37.3197 53.2641 36.5633 51.4616 36.5633C49.6221 36.5633 48.4574 37.7242 48.4574 39.2408C48.4574 41.1153 49.6241 41.8736 52.3171 43.0344L53.8863 43.7033C59.2238 45.9764 62.2338 48.2981 62.2338 53.5169C62.2338 59.1403 57.7927 62.2222 51.831 62.2222C45.9996 62.2222 42.6882 59.2958 40.8449 55.6733L45.7799 52.3969ZM23.2516 52.5564C24.2354 54.3181 25.7307 55.6733 27.8813 55.6733C29.9385 55.6733 31.1227 54.8606 31.1227 51.7008V31.1111H37.6035V52.6964C37.6035 59.2433 33.806 62.2222 28.2604 62.2222C23.2496 62.2222 19.6329 58.8272 18.1591 55.6733L23.2516 52.5564Z" fill="#000001"/>
</svg>
