<svg width="15" height="25" viewBox="0 0 15 25" fill="none" xmlns="http://www.w3.org/2000/svg">
<path d="M14.7496 24.4825L7.6318 15.6366L14.4566 9.03144C14.5836 8.89963 14.5396 8.51884 14.1979 8.51884H10.8197C10.6488 8.51884 10.4779 8.60672 10.3071 8.77758L3.84836 15.3046V0.366139C3.84836 0.122046 3.72631 0 3.48222 0H0.948537C0.704444 0 0.582397 0.122046 0.582397 0.366139V24.629C0.582397 24.8731 0.704444 24.9951 0.948537 24.9951H3.48222C3.72631 24.9951 3.84836 24.8731 3.84836 24.629V19.3078L5.35197 17.8774L10.7464 24.7413C10.8929 24.9121 11.0637 25 11.259 25H14.525C14.6959 25 14.7935 24.9512 14.8179 24.8535L14.7496 24.4825Z" fill="#ECE9E6"/>
</svg>
