<svg width="26" height="25" viewBox="0 0 26 25" fill="none" xmlns="http://www.w3.org/2000/svg">
<path d="M6.41401 25H1.23086V8.30878H6.41401V25ZM3.81964 6.03194C2.16224 6.03194 0.817902 4.65914 0.817902 3.00174C0.817902 2.20563 1.13416 1.44213 1.69709 0.87919C2.26003 0.316254 3.02353 0 3.81964 0C4.61575 0 5.37926 0.316254 5.94219 0.87919C6.50513 1.44213 6.82138 2.20563 6.82138 3.00174C6.82138 4.65914 5.47649 6.03194 3.81964 6.03194ZM25.8129 25H20.6409V16.8748C20.6409 14.9384 20.6018 12.4551 17.9461 12.4551C15.2513 12.4551 14.8383 14.5589 14.8383 16.7353V25H9.66073V8.30878H14.6318V10.5856H14.7044C15.3964 9.2742 17.0867 7.89024 19.6085 7.89024C24.8542 7.89024 25.8185 11.3446 25.8185 15.8313V25H25.8129Z" fill="#ECE9E6"/>
</svg>
