<svg width="18" height="18" viewBox="0 0 18 18" fill="none" xmlns="http://www.w3.org/2000/svg">
<path d="M0 0V18H18V0H0ZM14.9545 4.26295L13.9902 5.18705C13.9058 5.25134 13.8656 5.3558 13.8817 5.45625V12.2585C13.8656 12.3629 13.9058 12.4674 13.9902 12.5277L14.9344 13.4518V13.6567H10.1933V13.4598L11.1696 12.5116C11.2661 12.4152 11.2661 12.3871 11.2661 12.2424V6.74196L8.55 13.6366H8.18437L5.02232 6.74196V11.3625C4.9942 11.5554 5.0625 11.7522 5.19911 11.8929L6.46875 13.4317V13.6366H2.86071V13.4317L4.13036 11.8929C4.26696 11.7522 4.32723 11.5554 4.29509 11.3625V6.01875C4.31116 5.87009 4.25491 5.72545 4.14241 5.625L3.01339 4.26295V4.05804H6.52098L9.22902 10.0045L11.6116 4.06205H14.9545V4.26295Z" fill="#ECE9E6"/>
</svg>
