<svg width="67" height="70" viewBox="0 0 67 70" fill="none" xmlns="http://www.w3.org/2000/svg">
<path d="M21.2943 56.1486C21.2943 58.4227 19.4336 60.49 16.9528 60.49C14.472 60.49 12.6113 58.6294 12.6113 56.1486V37.5422C12.6113 35.2681 14.472 33.2008 16.9528 33.2008C19.4336 33.2008 21.2943 35.0614 21.2943 37.5422V56.1486Z" fill="#F3CF00"/>
<path d="M33.6981 61.1103C33.6981 63.3844 31.8375 65.4518 29.3567 65.4518C26.8758 65.4518 25.2219 63.5911 25.2219 61.1103V32.7873C25.2219 30.5132 27.0826 28.4459 29.5634 28.4459C32.0442 28.4459 33.9049 30.3065 33.9049 32.7873V61.1103H33.6981Z" fill="#F3CF00"/>
<path d="M8.68295 52.0139C8.68295 54.288 6.82232 56.3554 4.34147 56.3554C1.86063 56.3554 0 54.4947 0 52.0139V41.8838C0 39.6097 1.86063 37.5423 4.34147 37.5423C6.82232 37.5423 8.68295 39.6097 8.68295 41.8838V52.0139Z" fill="#F3CF00"/>
<path d="M46.1022 65.6586C46.1022 67.9327 44.2416 70 41.7607 70C39.4866 70 37.626 67.9327 37.626 65.6586V28.0325C37.626 25.7583 39.4866 23.691 41.9675 23.691C44.2416 23.691 46.3089 25.5516 46.3089 28.0325V65.6586H46.1022Z" fill="#F3CF00"/>
<path d="M59.7473 63.7979C58.9203 63.7979 58.3001 63.5911 57.4731 63.3844L52.3047 61.7305C51.4778 61.5238 50.8576 60.4901 51.271 59.6631C51.4778 58.8362 52.5115 58.216 53.3384 58.6294L58.7136 60.2833C59.7473 60.6968 60.9877 60.4901 62.0214 59.6631C63.055 59.0429 63.4685 57.8025 63.4685 56.7688V22.2438C63.4685 20.5899 62.4348 19.1427 60.9877 18.7292L10.3372 3.43071C9.30347 3.01724 8.06304 3.22397 7.02936 3.84418C6.20241 4.67113 5.5822 5.70481 5.5822 6.94524V30.72C5.5822 31.7537 4.75526 32.3739 3.92831 32.3739C2.89462 32.3739 2.27441 31.5469 2.27441 30.72V6.94524C2.27441 4.67113 3.3081 2.60376 5.16873 1.36334C7.02936 -0.0838166 9.30347 -0.290553 11.3708 0.329657L61.8146 15.6282C64.7089 16.4551 66.7763 19.3494 66.7763 22.4505V56.9756C66.7763 59.2497 65.7426 61.317 63.882 62.7642C62.6416 63.1777 61.1944 63.7979 59.7473 63.7979Z" fill="#F3CF00"/>
</svg>
