<svg width="71" height="70" viewBox="0 0 71 70" fill="none" xmlns="http://www.w3.org/2000/svg">
<path d="M34.9817 0.000572558C32.1268 0.0138379 29.4005 0.257317 27.0016 0.6818C19.9347 1.93028 18.6517 4.54345 18.6517 9.36259V15.7272H35.3515V17.8487H18.6517H12.3844C7.53096 17.8487 3.28116 20.7659 1.95187 26.3154C0.41856 32.6764 0.350549 36.6458 1.95187 43.2877C3.13895 48.2317 5.97387 51.7544 10.8273 51.7544H16.5691V44.1247C16.5691 38.6126 21.3382 33.7505 27.0016 33.7505H43.6819C48.3251 33.7505 52.0318 29.9275 52.0318 25.2644V9.36259C52.0318 4.83684 48.2139 1.43713 43.6819 0.6818C40.8132 0.204256 37.8365 -0.0126928 34.9817 0.000572558ZM25.9505 5.11951C27.6755 5.11951 29.0842 6.55119 29.0842 8.31155C29.0842 10.0657 27.6755 11.4841 25.9505 11.4841C24.2194 11.4841 22.8169 10.0657 22.8169 8.31155C22.8169 6.55119 24.2194 5.11951 25.9505 5.11951Z" fill="url(#paint0_linear)"/>
<path d="M54.1145 17.8487V25.2644C54.1145 31.0136 49.2402 35.8526 43.682 35.8526H27.0016C22.4326 35.8526 18.6517 39.7631 18.6517 44.3387V60.2405C18.6517 64.7663 22.5872 67.4283 27.0016 68.7267C32.2879 70.2811 37.3571 70.562 43.682 68.7267C47.8862 67.5094 52.0319 65.0597 52.0319 60.2405V53.8759H35.3515V51.7544H52.0319H60.3818C65.2352 51.7544 67.0438 48.369 68.7317 43.2877C70.4752 38.0566 70.401 33.026 68.7317 26.3154C67.5322 21.4838 65.2414 17.8487 60.3818 17.8487H54.1145ZM44.733 58.119C46.4642 58.119 47.8667 59.5375 47.8667 61.2916C47.8667 63.0519 46.4642 64.4836 44.733 64.4836C43.008 64.4836 41.5994 63.0519 41.5994 61.2916C41.5994 59.5375 43.008 58.119 44.733 58.119Z" fill="url(#paint1_linear)"/>
<defs>
<linearGradient id="paint0_linear" x1="0.776245" y1="4.73477e-08" x2="39.2842" y2="32.8141" gradientUnits="userSpaceOnUse">
<stop stop-color="#5A9FD4"/>
<stop offset="1" stop-color="#306998"/>
</linearGradient>
<linearGradient id="paint1_linear" x1="44.3317" y1="60.7565" x2="30.5165" y2="41.3973" gradientUnits="userSpaceOnUse">
<stop stop-color="#FFD43B"/>
<stop offset="1" stop-color="#FFE873"/>
</linearGradient>
</defs>
</svg>
