<svg width="25" height="25" viewBox="0 0 25 25" fill="none" xmlns="http://www.w3.org/2000/svg">
<path d="M24.0918 1.20167L19.0138 0.0298243C18.462 -0.0971262 17.8956 0.190954 17.671 0.708521L15.3273 6.17716C15.1223 6.65566 15.259 7.21717 15.6642 7.54431L18.6232 9.96614C16.8654 13.7112 13.7942 16.8263 9.971 18.6183L7.54918 15.6594C7.21715 15.2541 6.66052 15.1174 6.18202 15.3225L0.713384 17.6662C0.190934 17.8957 -0.0971456 18.4621 0.0298048 19.0138L1.20166 24.0918C1.32372 24.6191 1.79246 25 2.34421 25C14.8488 25 25 14.8684 25 2.34423C25 1.79737 24.624 1.32374 24.0918 1.20167Z" fill="#434343"/>
</svg>
