<svg width="71" height="70" viewBox="0 0 71 70" fill="none" xmlns="http://www.w3.org/2000/svg">
<path d="M0.677589 24.1489C0.677589 24.1489 -1.02735 22.92 1.01858 21.279L5.7853 17.0166C5.7853 17.0166 7.14926 15.5816 8.59135 16.8319L52.5788 50.1351V66.1047C52.5788 66.1047 52.5575 68.6123 49.3394 68.3353L0.677589 24.1489Z" fill="#2489CA"/>
<path d="M12.0156 34.4425L0.677709 44.7503C0.677709 44.7503 -0.487333 45.617 0.677709 47.1656L5.94171 51.9537C5.94171 51.9537 7.192 53.2963 9.03902 51.769L21.0588 42.6546L12.0156 34.4425Z" fill="#1070B3"/>
<path d="M31.9205 34.5277L52.7136 18.6505L52.5787 2.76614C52.5787 2.76614 51.6907 -0.700572 48.7283 1.10382L21.0586 26.2872L31.9205 34.5277Z" fill="#0877B9"/>
<path d="M49.3395 68.3566C50.5471 69.5927 52.0105 69.1878 52.0105 69.1878L68.2146 61.203C70.2889 59.7893 69.9976 58.0346 69.9976 58.0346V10.3531C69.9976 8.25748 67.8523 7.53288 67.8523 7.53288L53.8078 0.762848C50.7389 -1.1339 48.7285 1.10384 48.7285 1.10384C48.7285 1.10384 51.3143 -0.757389 52.5788 2.76615V65.8134C52.5788 66.2467 52.4865 66.673 52.3018 67.0566C51.9324 67.8025 51.1296 68.4987 49.2045 68.2074L49.3395 68.3566Z" fill="#3C99D4"/>
</svg>
