<svg width="71" height="70" fill="none" xmlns="http://www.w3.org/2000/svg"><path d="M13.2 53.261v-.254c0-2.029.254-4.058.507-6.087v-.253h-.253c-1.776-.761-3.551-1.522-5.327-2.536h-.253v.253c-1.268 2.283-2.03 4.82-2.79 7.102v.253h.254a39.23 39.23 0 007.862 1.522zm5.326-35.254s0-.253 0 0c-1.521 0-3.043 0-4.565.254l.76 4.565c1.015-1.775 2.284-3.55 3.805-4.819zM13.2 55.036c-2.536-.507-4.565-.76-6.848-1.268l-.76-.253.253.507a37.412 37.412 0 007.355 8.116l.507.254v-.508c-.507-2.282-.507-4.565-.507-6.848zM23.852 1.775c-2.79 1.015-5.326 2.283-7.609 3.805 1.776.253 3.55.76 5.326 1.268.761-1.776 1.522-3.55 2.283-5.073zM35.265 0c-1.268 0-2.79 0-4.058.254 1.775 1.268 3.55 2.79 5.326 4.311l1.268 1.015-1.268 1.268c-1.014 1.014-2.282 2.282-3.297 3.55l-.507.508c.76 0 1.775-.254 2.536-.254 13.188 0 23.84 10.652 23.84 23.84 0 13.19-10.651 23.842-23.84 23.842-4.565 0-8.877-1.269-12.428-3.551-1.775.253-3.55.253-5.326.253h-2.536c0 2.79.254 5.58.761 8.37 5.58 3.804 12.174 6.087 19.529 6.087a34.638 34.638 0 0034.746-34.746A34.638 34.638 0 0035.265 0z" fill="#43B02A"/><path d="M30.7 8.116c.761-.76 1.522-1.522 2.03-2.283-1.522-1.268-3.298-2.536-5.073-3.804-1.015 1.775-2.03 3.804-2.79 5.833 1.522.508 3.043 1.268 4.565 2.03.507-1.015 1.015-1.522 1.268-1.776zM6.86 27.899h.253c1.522-1.268 3.297-2.283 5.072-3.297h.254v-.254c-.507-2.03-1.014-4.058-1.268-6.087v-.254h-.254c-2.536.508-5.072 1.268-7.608 2.03h-.254v.253c1.268 3.043 2.536 5.326 3.804 7.609zm-.254 3.551c-2.03 1.775-3.804 3.296-5.58 5.072l-.253.254.253.253c1.776 1.522 3.805 3.044 5.834 4.312l.253.253v-.253c1.015-1.522 2.03-3.297 3.044-4.82v-.253l.253-.253c-1.521-1.269-2.536-2.79-3.804-4.566zm13.695 21.811h.508l-.508-.507c-1.775-1.522-3.55-3.297-4.818-5.326l-.508-.254v.254c-.253 1.775-.253 3.55-.507 5.326v.253h2.79c1.014.508 2.029.508 3.043.254zm-1.268-38.297c.254-1.776.761-3.297 1.268-5.073-2.029-.76-4.311-1.268-6.594-1.521a30.901 30.901 0 000 6.848c1.775-.254 3.55-.254 5.326-.254zm3.297-.254c1.522-1.014 3.044-1.775 4.82-2.282l-3.805-1.522c-.254 1.268-.507 2.536-1.014 3.804zM6.098 43.116C4.07 41.848 2.294 40.58.772 39.312l-.253-.508v.508c.507 3.297 1.268 6.594 2.79 9.638l.253.507.254-.508a34.408 34.408 0 012.282-5.833zm4.566-32.971a35.377 35.377 0 00-5.326 6.848c1.775-.507 3.55-1.015 5.326-1.268v-5.58zm1.014 24.348v-.507c0-2.03.507-4.312 1.015-6.087l.253-.508-.507.254c-1.268.76-2.79 1.775-4.058 2.536l-.253.254.253.254c1.015 1.268 1.776 2.536 2.79 3.804h.507zm.254 3.551v-.508l-.254.508c-1.014 1.268-1.775 2.79-2.79 4.311v.254h.254l4.565 2.282.507.254-.253-.507c-1.015-2.283-1.776-4.312-2.03-6.594zm-6.848-8.37v-.254c-1.014-1.775-2.029-3.55-2.79-5.58l-.253-.507-.254.508C.772 26.884.265 30.18.012 33.732v.507l.507-.253c1.522-1.522 3.043-3.044 4.565-4.312z" fill="#43B02A"/></svg>