<svg width="1001" height="1001" fill="none" xmlns="http://www.w3.org/2000/svg"><path d="M157.153 932.494l-5.688 13.159h11.377l-5.689-13.159zm0-9.399l16.26 37.158h-4.614l-4.639-10.962h-13.965l-4.638 10.962h-4.615l16.211-37.158z" fill="url(#paint0_linear)"/><path d="M194.014 924.511h4.297v22.241c0 3.613.765 6.266 2.294 7.959 1.547 1.692 3.964 2.539 7.251 2.539 3.288 0 5.697-.847 7.227-2.539 1.546-1.693 2.319-4.346 2.319-7.959v-22.241h4.322v22.241c0 4.834-1.156 8.455-3.467 10.864-2.295 2.393-5.762 3.589-10.401 3.589-4.622 0-8.089-1.196-10.4-3.589-2.295-2.409-3.442-6.03-3.442-10.864v-22.241z" fill="url(#paint1_linear)"/><path d="M266.909 941.796h14.746v1.196c0 5.632-1.595 10.075-4.785 13.33-3.19 3.255-7.544 4.883-13.061 4.883-1.677 0-3.28-.179-4.81-.537a17.445 17.445 0 01-4.199-1.563c-2.93-1.611-5.192-3.833-6.787-6.665-1.595-2.848-2.393-6.079-2.393-9.692 0-2.979.472-5.664 1.416-8.057.96-2.409 2.401-4.525 4.321-6.347a16.117 16.117 0 015.616-3.467c2.132-.781 4.492-1.172 7.08-1.172 3.434 0 6.413.627 8.935 1.88 2.523 1.237 4.615 3.109 6.275 5.615l-3.565 2.856c-1.286-2.164-2.889-3.784-4.809-4.858-1.921-1.09-4.151-1.636-6.69-1.636-4.15 0-7.519 1.4-10.107 4.2-2.588 2.799-3.882 6.461-3.882 10.986 0 4.264 1.31 7.764 3.931 10.498 2.636 2.734 5.989 4.101 10.058 4.101 3.581 0 6.559-1.082 8.936-3.247 2.392-2.181 3.719-5.013 3.979-8.496h-10.205v-3.808z" fill="url(#paint2_linear)"/><path d="M305.332 924.511h4.297v22.241c0 3.613.765 6.266 2.295 7.959 1.546 1.692 3.963 2.539 7.251 2.539 3.288 0 5.696-.847 7.226-2.539 1.547-1.693 2.32-4.346 2.32-7.959v-22.241h4.321v22.241c0 4.834-1.156 8.455-3.467 10.864-2.295 2.393-5.762 3.589-10.4 3.589-4.623 0-8.089-1.196-10.401-3.589-2.294-2.409-3.442-6.03-3.442-10.864v-22.241z" fill="url(#paint3_linear)"/><path d="M372.026 940.404c2.328.993 4.078 2.311 5.249 3.955 1.189 1.644 1.783 3.589 1.783 5.835 0 3.288-1.05 5.941-3.15 7.959-2.083 2.002-4.85 3.003-8.301 3.003-2.815 0-5.175-.716-7.08-2.148-1.904-1.449-3.19-3.5-3.857-6.153l3.857-1.904c.521 2.165 1.376 3.809 2.564 4.932 1.204 1.106 2.71 1.66 4.516 1.66 2.133 0 3.858-.611 5.176-1.831 1.319-1.237 1.978-2.84 1.978-4.81 0-1.595-.464-2.978-1.392-4.15-.911-1.188-2.295-2.189-4.15-3.003l-4.346-1.856c-2.376-.992-4.15-2.27-5.322-3.833-1.156-1.562-1.734-3.434-1.734-5.615 0-2.539.944-4.639 2.832-6.299 1.888-1.66 4.297-2.49 7.227-2.49 2.148 0 4.004.456 5.566 1.367 1.579.912 2.808 2.254 3.687 4.029l-3.516 2.246c-.797-1.384-1.692-2.409-2.685-3.077-.993-.683-2.116-1.025-3.369-1.025-1.595 0-2.906.488-3.931 1.465-1.009.977-1.514 2.222-1.514 3.735 0 1.27.391 2.368 1.172 3.296.781.928 1.994 1.75 3.638 2.466l5.102 2.246z" fill="url(#paint4_linear)"/><path d="M408.496 960.253v-31.69h-10.107v-4.052h24.463v4.052h-10.059v31.69h-4.297z" fill="url(#paint5_linear)"/><path d="M461.177 957.201c1.953 0 3.808-.366 5.566-1.099 1.774-.748 3.369-1.831 4.785-3.247a14.516 14.516 0 003.199-4.76 14.644 14.644 0 001.098-5.64c0-2.002-.374-3.906-1.123-5.713a14.277 14.277 0 00-3.174-4.785 14.497 14.497 0 00-4.76-3.198 14.383 14.383 0 00-5.591-1.099c-1.986 0-3.866.366-5.64 1.099a13.982 13.982 0 00-4.712 3.198 14.707 14.707 0 00-3.198 4.809 14.89 14.89 0 00-1.099 5.689c0 1.986.358 3.857 1.075 5.615.732 1.758 1.806 3.353 3.222 4.785 1.433 1.433 3.019 2.515 4.761 3.247a14.379 14.379 0 005.591 1.099zm19.092-14.746c0 2.555-.472 4.964-1.416 7.226-.944 2.263-2.32 4.273-4.126 6.031a19.307 19.307 0 01-6.25 4.077 19.364 19.364 0 01-7.3 1.416c-2.523 0-4.956-.472-7.3-1.416a19.442 19.442 0 01-6.201-4.077c-1.823-1.774-3.215-3.793-4.175-6.055-.944-2.262-1.416-4.663-1.416-7.202 0-2.555.472-4.964 1.416-7.227.96-2.278 2.352-4.305 4.175-6.079a18.968 18.968 0 016.201-4.028 19.364 19.364 0 017.3-1.416c2.539 0 4.98.472 7.324 1.416a18.92 18.92 0 016.226 4.028 17.982 17.982 0 014.126 6.055c.944 2.262 1.416 4.679 1.416 7.251z" fill="url(#paint6_linear)"/><path d="M552.256 961.644l-11.109-25.683-4.492 24.292h-4.15l7.251-37.158 12.5 29.565 12.5-29.565 7.251 37.158h-4.151l-4.541-24.292-11.059 25.683z" fill="url(#paint7_linear)"/><path d="M606.304 932.494l-5.689 13.159h11.377l-5.688-13.159zm0-9.399l16.26 37.158h-4.615l-4.638-10.962h-13.965l-4.639 10.962h-4.614l16.211-37.158z" fill="url(#paint8_linear)"/><path d="M643.75 960.253v-35.742h8.398c2.393 0 4.143.138 5.25.415 1.123.26 2.107.716 2.954 1.367 1.058.83 1.879 1.945 2.465 3.345.586 1.383.879 2.921.879 4.614 0 2.929-.822 5.159-2.465 6.689-1.628 1.514-4.021 2.271-7.178 2.271h-.757l13.647 17.041h-5.395l-13.037-17.041h-.611v17.041h-4.15zm4.15-32.154v11.963h3.248c3.32 0 5.542-.423 6.665-1.269 1.123-.863 1.684-2.36 1.684-4.492 0-2.295-.578-3.899-1.733-4.81-1.156-.928-3.361-1.392-6.616-1.392H647.9z" fill="url(#paint9_linear)"/><path d="M701.021 940.404c2.327.993 4.077 2.311 5.249 3.955 1.188 1.644 1.782 3.589 1.782 5.835 0 3.288-1.05 5.941-3.15 7.959-2.083 2.002-4.85 3.003-8.3 3.003-2.816 0-5.176-.716-7.08-2.148-1.905-1.449-3.191-3.5-3.858-6.153l3.858-1.904c.52 2.165 1.375 3.809 2.563 4.932 1.204 1.106 2.71 1.66 4.517 1.66 2.132 0 3.857-.611 5.175-1.831 1.319-1.237 1.978-2.84 1.978-4.81 0-1.595-.464-2.978-1.392-4.15-.911-1.188-2.295-2.189-4.15-3.003l-4.346-1.856c-2.376-.992-4.15-2.27-5.322-3.833-1.156-1.562-1.733-3.434-1.733-5.615 0-2.539.944-4.639 2.832-6.299 1.888-1.66 4.296-2.49 7.226-2.49 2.149 0 4.004.456 5.567 1.367 1.578.912 2.807 2.254 3.686 4.029l-3.516 2.246c-.797-1.384-1.692-2.409-2.685-3.077-.993-.683-2.116-1.025-3.369-1.025-1.595 0-2.905.488-3.931 1.465-1.009.977-1.514 2.222-1.514 3.735 0 1.27.391 2.368 1.172 3.296.782.928 1.994 1.75 3.638 2.466l5.103 2.246z" fill="url(#paint10_linear)"/><path d="M748.696 957.201c1.953 0 3.809-.366 5.567-1.099 1.774-.748 3.369-1.831 4.785-3.247a14.497 14.497 0 003.198-4.76 14.626 14.626 0 001.099-5.64 14.79 14.79 0 00-1.123-5.713 14.307 14.307 0 00-3.174-4.785 14.512 14.512 0 00-4.761-3.198 14.379 14.379 0 00-5.591-1.099c-1.985 0-3.865.366-5.639 1.099a13.982 13.982 0 00-4.712 3.198 14.707 14.707 0 00-3.198 4.809 14.872 14.872 0 00-1.099 5.689c0 1.986.358 3.857 1.074 5.615.733 1.758 1.807 3.353 3.223 4.785 1.432 1.433 3.019 2.515 4.761 3.247a14.374 14.374 0 005.59 1.099zm19.092-14.746c0 2.555-.472 4.964-1.416 7.226-.944 2.263-2.319 4.273-4.126 6.031a19.297 19.297 0 01-6.25 4.077 19.364 19.364 0 01-7.3 1.416c-2.522 0-4.956-.472-7.299-1.416a19.446 19.446 0 01-6.202-4.077c-1.823-1.774-3.214-3.793-4.174-6.055-.944-2.262-1.416-4.663-1.416-7.202 0-2.555.472-4.964 1.416-7.227.96-2.278 2.351-4.305 4.174-6.079a18.983 18.983 0 016.202-4.028 19.359 19.359 0 017.299-1.416c2.539 0 4.981.472 7.325 1.416a18.905 18.905 0 016.225 4.028 17.967 17.967 0 014.126 6.055c.944 2.262 1.416 4.679 1.416 7.251z" fill="url(#paint11_linear)"/><path d="M792.246 960.253v-35.742h4.248V956.2h13.501v4.053h-17.749z" fill="url(#paint12_linear)"/><path d="M843.853 932.494l-5.689 13.159h11.377l-5.688-13.159zm0-9.399l16.259 37.158h-4.614l-4.639-10.962h-13.964l-4.639 10.962h-4.614l16.211-37.158z" fill="url(#paint13_linear)"/><path d="M603.034 767.753l-143.975 95-1.252-825 127.7 77.5 132.708 248.75 85.134-113.75 60.094 35v315l-60.094 38.75-6.26-245-88.89 136.25-100.157-153.75-5.008 391.25z" fill="url(#paint14_linear)"/><path d="M312.578 382.753l-113.928 2.5v-125l113.928-25v147.5z" fill="url(#paint15_linear)"/><path d="M312.578 700.253l-113.928 42.5v-255l113.928 7.5v205z" fill="url(#paint16_linear)"/><defs><linearGradient id="paint0_linear" x1="509.277" y1="912.753" x2="509.277" y2="972.753" gradientUnits="userSpaceOnUse"><stop/><stop offset="1" stop-color="#434343"/></linearGradient><linearGradient id="paint1_linear" x1="509.277" y1="912.753" x2="509.277" y2="972.753" gradientUnits="userSpaceOnUse"><stop/><stop offset="1" stop-color="#434343"/></linearGradient><linearGradient id="paint2_linear" x1="509.277" y1="912.753" x2="509.277" y2="972.753" gradientUnits="userSpaceOnUse"><stop/><stop offset="1" stop-color="#434343"/></linearGradient><linearGradient id="paint3_linear" x1="509.277" y1="912.753" x2="509.277" y2="972.753" gradientUnits="userSpaceOnUse"><stop/><stop offset="1" stop-color="#434343"/></linearGradient><linearGradient id="paint4_linear" x1="509.277" y1="912.753" x2="509.277" y2="972.753" gradientUnits="userSpaceOnUse"><stop/><stop offset="1" stop-color="#434343"/></linearGradient><linearGradient id="paint5_linear" x1="509.277" y1="912.753" x2="509.277" y2="972.753" gradientUnits="userSpaceOnUse"><stop/><stop offset="1" stop-color="#434343"/></linearGradient><linearGradient id="paint6_linear" x1="509.277" y1="912.753" x2="509.277" y2="972.753" gradientUnits="userSpaceOnUse"><stop/><stop offset="1" stop-color="#434343"/></linearGradient><linearGradient id="paint7_linear" x1="509.277" y1="912.753" x2="509.277" y2="972.753" gradientUnits="userSpaceOnUse"><stop/><stop offset="1" stop-color="#434343"/></linearGradient><linearGradient id="paint8_linear" x1="509.277" y1="912.753" x2="509.277" y2="972.753" gradientUnits="userSpaceOnUse"><stop/><stop offset="1" stop-color="#434343"/></linearGradient><linearGradient id="paint9_linear" x1="509.277" y1="912.753" x2="509.277" y2="972.753" gradientUnits="userSpaceOnUse"><stop/><stop offset="1" stop-color="#434343"/></linearGradient><linearGradient id="paint10_linear" x1="509.277" y1="912.753" x2="509.277" y2="972.753" gradientUnits="userSpaceOnUse"><stop/><stop offset="1" stop-color="#434343"/></linearGradient><linearGradient id="paint11_linear" x1="509.277" y1="912.753" x2="509.277" y2="972.753" gradientUnits="userSpaceOnUse"><stop/><stop offset="1" stop-color="#434343"/></linearGradient><linearGradient id="paint12_linear" x1="509.277" y1="912.753" x2="509.277" y2="972.753" gradientUnits="userSpaceOnUse"><stop/><stop offset="1" stop-color="#434343"/></linearGradient><linearGradient id="paint13_linear" x1="509.277" y1="912.753" x2="509.277" y2="972.753" gradientUnits="userSpaceOnUse"><stop/><stop offset="1" stop-color="#434343"/></linearGradient><linearGradient id="paint14_linear" x1="660.625" y1="37.753" x2="660.625" y2="862.753" gradientUnits="userSpaceOnUse"><stop/><stop offset="1" stop-color="#434343"/></linearGradient><linearGradient id="paint15_linear" x1="255.614" y1="235.253" x2="255.614" y2="385.253" gradientUnits="userSpaceOnUse"><stop/><stop offset="1" stop-color="#434343"/></linearGradient><linearGradient id="paint16_linear" x1="255.614" y1="487.753" x2="255.614" y2="742.753" gradientUnits="userSpaceOnUse"><stop/><stop offset="1" stop-color="#434343"/></linearGradient></defs></svg>