<svg width="25" height="19" fill="none" xmlns="http://www.w3.org/2000/svg"><path d="M24.526 6.191a.294.294 0 01.474.23v9.985a2.344 2.344 0 01-2.344 2.344H2.344A2.344 2.344 0 010 16.406v-9.98c0-.244.278-.381.474-.23 1.093.85 2.544 1.929 7.524 5.547 1.03.752 2.769 2.334 4.502 2.324 1.743.015 3.516-1.601 4.507-2.324 4.98-3.618 6.426-4.702 7.52-5.552zM12.5 12.5c1.133.02 2.764-1.426 3.584-2.021 6.48-4.703 6.973-5.113 8.467-6.285.283-.22.449-.561.449-.923v-.927A2.344 2.344 0 0022.656 0H2.344A2.344 2.344 0 000 2.344v.927c0 .362.166.699.45.923 1.493 1.167 1.987 1.582 8.466 6.285.82.595 2.451 2.04 3.584 2.021z" fill="#ECE9E6"/></svg>