<svg width="71" height="70" fill="none" xmlns="http://www.w3.org/2000/svg"><path d="M68.691 31.882L38.137 1.32a4.511 4.511 0 00-6.377 0l-6.353 6.348 8.05 8.05c4.228-1.428 8.231 2.62 6.78 6.825l7.759 7.76c5.348-1.844 9.56 4.843 5.542 8.857-4.139 4.14-10.97-.448-8.75-5.834l-7.242-7.233v19.04c3.953 1.959 3.478 6.538 1.419 8.593a5.365 5.365 0 01-7.586 0c-2.745-2.75-1.73-7.33 1.758-8.75V25.757c-3.25-1.33-3.844-4.803-2.913-7.031l-7.936-7.945L1.332 31.74a4.51 4.51 0 000 6.377l30.564 30.562a4.51 4.51 0 006.375 0l30.42-30.42a4.51 4.51 0 000-6.377z" fill="#F05033"/></svg>