<svg width="25" height="20" fill="none" xmlns="http://www.w3.org/2000/svg"><path d="M9.693 13.787c0 1.088-.568 2.87-1.912 2.87-1.343 0-1.911-1.782-1.911-2.87 0-1.09.567-2.87 1.911-2.87s1.912 1.78 1.912 2.87zM25 11.157c0 1.66-.167 3.421-.912 4.947-1.973 3.99-7.4 3.896-11.286 3.896-3.948 0-9.698.14-11.75-3.896C.292 14.594 0 12.818 0 11.156 0 8.974.724 6.911 2.161 5.24a8.153 8.153 0 01-.4-2.542c0-1.12.255-1.682.76-2.698 2.36 0 3.87.469 5.667 1.875a19.95 19.95 0 014.62-.52c1.405 0 2.822.15 4.187.478C18.765.443 20.276 0 22.609 0c.51 1.016.76 1.578.76 2.698 0 .854-.135 1.703-.4 2.51C24.4 6.896 25 8.974 25 11.156zm-3.349 2.63c0-2.287-1.39-4.303-3.828-4.303-.985 0-1.927.177-2.917.313-.776.12-1.552.167-2.349.167-.791 0-1.567-.047-2.349-.167-.974-.136-1.927-.313-2.916-.313-2.438 0-3.828 2.016-3.828 4.303 0 4.572 4.187 5.275 7.833 5.275h2.51c3.662 0 7.844-.697 7.844-5.276zm-4.302-2.87c-1.344 0-1.912 1.78-1.912 2.87 0 1.088.568 2.87 1.912 2.87 1.344 0 1.911-1.782 1.911-2.87 0-1.09-.567-2.87-1.911-2.87z" fill="#ECE9E6"/></svg>