<svg width="18" height="18" fill="none" xmlns="http://www.w3.org/2000/svg"><path d="M16.071 0H1.93A1.93 1.93 0 000 1.929V16.07A1.93 1.93 0 001.929 18H16.07A1.929 1.929 0 0018 16.071V1.93A1.929 1.929 0 0016.071 0zm-4.93 15.416c-.337.06-.461-.148-.461-.32 0-.218.008-1.327.008-2.223 0-.627-.21-1.024-.455-1.233 1.487-.165 3.054-.37 3.054-2.937 0-.732-.261-1.097-.687-1.567.068-.173.297-.884-.068-1.808-.559-.173-1.837.719-1.837.719a6.259 6.259 0 00-1.67-.225 6.26 6.26 0 00-1.672.225s-1.278-.892-1.836-.72c-.366.92-.141 1.632-.069 1.809-.426.47-.627.835-.627 1.567 0 2.555 1.5 2.772 2.986 2.937-.193.172-.366.47-.426.896-.382.173-1.358.47-1.94-.559a1.4 1.4 0 00-1.025-.687c-.651-.008-.045.41-.045.41.434.2.74.972.74.972.39 1.194 2.254.792 2.254.792 0 .558.008 1.466.008 1.631 0 .173-.12.382-.462.321-2.652-.887-4.508-3.41-4.508-6.36 0-3.688 2.82-6.489 6.509-6.489 3.688 0 6.677 2.8 6.677 6.49.004 2.948-1.796 5.476-4.447 6.36zM7.2 12.962c-.076.016-.149-.017-.157-.069-.008-.06.045-.112.12-.128.077-.008.15.024.158.076.012.052-.04.104-.121.12zm-.382-.037c0 .053-.06.097-.14.097-.089.008-.149-.036-.149-.097 0-.052.06-.096.14-.096.077-.008.15.036.15.096zm-.55-.044c-.016.053-.097.077-.165.053-.076-.017-.128-.077-.112-.13.016-.051.096-.075.164-.06.08.025.133.085.113.137zm-.494-.217c-.037.045-.113.036-.173-.024-.06-.052-.076-.128-.036-.165.036-.044.112-.036.172.025.053.052.073.132.037.164zm-.366-.365c-.036.024-.104 0-.149-.06-.044-.06-.044-.13 0-.157.045-.037.113-.008.149.052.044.06.044.133 0 .165zm-.261-.39c-.036.036-.097.016-.14-.024-.045-.052-.053-.113-.017-.14.036-.037.097-.017.14.023.045.052.053.113.017.14zm-.27-.297c-.015.036-.068.044-.112.016-.052-.024-.076-.069-.06-.105.016-.024.06-.036.112-.016.053.028.077.072.06.105z" fill="#ECE9E6"/></svg>