<svg width="71" height="70" fill="none" xmlns="http://www.w3.org/2000/svg"><path d="M.012 70V0h70v70h-70z" fill="#FFD600"/><path d="M45.78 52.397c1.345 2.186 2.808 4.28 5.905 4.28 2.602 0 3.967-1.293 3.967-3.082 0-2.141-1.412-2.901-4.274-4.148l-1.57-.669c-4.528-1.92-7.54-4.328-7.54-9.413 0-4.686 3.588-8.252 9.194-8.252 3.991 0 6.86 1.383 8.928 5.003l-4.888 3.125c-1.075-1.921-2.238-2.678-4.04-2.678-1.84 0-3.005 1.161-3.005 2.678 0 1.874 1.167 2.633 3.86 3.793l1.57.67c5.337 2.272 8.347 4.594 8.347 9.813 0 5.623-4.441 8.705-10.403 8.705-5.831 0-9.143-2.926-10.986-6.549l4.935-3.276zm-22.528.16c.983 1.761 2.479 3.116 4.63 3.116 2.056 0 3.24-.812 3.24-3.972V31.11h6.481v21.585c0 6.547-3.797 9.526-9.343 9.526-5.01 0-8.627-3.395-10.1-6.549l5.092-3.117z" fill="#000001"/></svg>