<svg width="67" height="70" fill="none" xmlns="http://www.w3.org/2000/svg"><path d="M21.294 56.149c0 2.274-1.86 4.341-4.341 4.341s-4.342-1.86-4.342-4.341V37.542c0-2.274 1.861-4.341 4.342-4.341 2.48 0 4.341 1.86 4.341 4.341V56.15zm12.404 4.961c0 2.274-1.86 4.342-4.341 4.342s-4.135-1.86-4.135-4.342V32.787c0-2.274 1.86-4.341 4.341-4.341s4.342 1.86 4.342 4.341V61.11h-.207zM8.683 52.014c0 2.274-1.86 4.341-4.342 4.341-2.48 0-4.341-1.86-4.341-4.341v-10.13c0-2.274 1.86-4.342 4.341-4.342s4.342 2.068 4.342 4.342v10.13zm37.419 13.645c0 2.274-1.86 4.341-4.341 4.341-2.274 0-4.135-2.067-4.135-4.341V28.032c0-2.274 1.86-4.341 4.342-4.341 2.274 0 4.34 1.86 4.34 4.341V65.66h-.206z" fill="#F3CF00"/><path d="M59.747 63.798c-.827 0-1.447-.207-2.274-.414l-5.168-1.654c-.827-.206-1.447-1.24-1.034-2.067.207-.827 1.24-1.447 2.067-1.034l5.376 1.654c1.033.414 2.274.207 3.307-.62 1.034-.62 1.447-1.86 1.447-2.894V22.244c0-1.654-1.033-3.101-2.48-3.515L10.338 3.431c-1.035-.414-2.275-.207-3.309.413-.827.827-1.447 1.86-1.447 3.101V30.72c0 1.034-.827 1.654-1.654 1.654-1.033 0-1.654-.827-1.654-1.654V6.945c0-2.274 1.034-4.341 2.895-5.582C7.029-.084 9.303-.29 11.37.33l50.444 15.298c2.894.827 4.961 3.721 4.961 6.823v34.525c0 2.274-1.033 4.341-2.894 5.788-1.24.414-2.688 1.034-4.135 1.034z" fill="#F3CF00"/></svg>