<svg width="71" height="70" fill="none" xmlns="http://www.w3.org/2000/svg"><path d="M34.982 0c-2.855.014-5.581.257-7.98.682-7.067 1.248-8.35 3.861-8.35 8.68v6.365h16.7v2.122H12.384c-4.853 0-9.103 2.917-10.432 8.466-1.533 6.361-1.601 10.33 0 16.973 1.187 4.944 4.022 8.466 8.875 8.466h5.742v-7.63c0-5.511 4.77-10.373 10.433-10.373h16.68c4.643 0 8.35-3.823 8.35-8.487V9.363c0-4.526-3.818-7.926-8.35-8.681a52.087 52.087 0 00-8.7-.681zM25.95 5.12c1.724 0 3.133 1.431 3.133 3.192 0 1.754-1.409 3.172-3.133 3.172-1.732 0-3.134-1.418-3.134-3.172 0-1.76 1.402-3.192 3.134-3.192z" fill="url(#paint0_linear)"/><path d="M54.114 17.849v7.415c0 5.75-4.874 10.589-10.432 10.589h-16.68c-4.57 0-8.35 3.91-8.35 8.486V60.24c0 4.526 3.935 7.188 8.35 8.487 5.286 1.554 10.355 1.835 16.68 0 4.204-1.218 8.35-3.667 8.35-8.487v-6.364h-16.68v-2.122h25.03c4.853 0 6.662-3.385 8.35-8.466 1.743-5.231 1.669-10.262 0-16.973-1.2-4.831-3.49-8.466-8.35-8.466h-6.267zm-9.381 40.27c1.731 0 3.134 1.419 3.134 3.173 0 1.76-1.403 3.192-3.134 3.192-1.725 0-3.134-1.432-3.134-3.192 0-1.755 1.409-3.173 3.134-3.173z" fill="url(#paint1_linear)"/><defs><linearGradient id="paint0_linear" x1=".776" y1="0" x2="39.284" y2="32.814" gradientUnits="userSpaceOnUse"><stop stop-color="#5A9FD4"/><stop offset="1" stop-color="#306998"/></linearGradient><linearGradient id="paint1_linear" x1="44.332" y1="60.757" x2="30.517" y2="41.397" gradientUnits="userSpaceOnUse"><stop stop-color="#FFD43B"/><stop offset="1" stop-color="#FFE873"/></linearGradient></defs></svg>