<svg width="71" height="70" fill="none" xmlns="http://www.w3.org/2000/svg"><path d="M.678 24.149s-1.705-1.229.34-2.87l4.767-4.262s1.364-1.435 2.806-.185L52.58 50.135v15.97s-.022 2.507-3.24 2.23L.678 24.15z" fill="#2489CA"/><path d="M12.016 34.443L.678 44.75s-1.165.867 0 2.416l5.264 4.788s1.25 1.342 3.097-.185l12.02-9.114-9.043-8.212z" fill="#1070B3"/><path d="M31.92 34.528L52.715 18.65 52.58 2.765S51.69-.7 48.729 1.104l-27.67 25.183 10.861 8.24z" fill="#0877B9"/><path d="M49.34 68.357c1.207 1.236 2.67.83 2.67.83l16.205-7.984c2.074-1.414 1.783-3.168 1.783-3.168V10.353c0-2.096-2.146-2.82-2.146-2.82L53.808.763c-3.07-1.897-5.08.34-5.08.34s2.586-1.86 3.85 1.663v63.047c0 .434-.092.86-.276 1.244-.37.745-1.172 1.442-3.097 1.15l.135.15z" fill="#3C99D4"/></svg>